<?xml version="1.0" encoding="UTF-8"?>
<svg id="Calque_2" data-name="Calque 2" xmlns="http://www.w3.org/2000/svg" viewBox="0 0 30 54">
  <g id="Calque_1-2" data-name="Calque 1">
    <g>
      <path d="m5.1,24.9c-.1-.1-.3-.3-.5-.4-.1,0-.3-.2-.5-.3-.2,0-.4-.1-.5-.2-.2,0-.4,0-.6,0s-.4,0-.6,0c-.2,0-.4,0-.6.2-.2,0-.4.2-.5.3-.1,0-.3.2-.5.4C.3,25.5,0,26.2,0,27s0,.4,0,.6H0c0,.2,0,.4.2.5s.2.4.3.5c.1.2.2.3.4.4.1.1.3.3.5.4.1,0,.3.2.5.3.2,0,.4.1.6.2.2,0,.4,0,.6,0,.8,0,1.6-.3,2.1-.9.1-.1.2-.3.4-.4.1-.2.2-.3.3-.5,0-.2.1-.4.2-.6,0-.2,0-.4,0-.6,0-.8-.3-1.6-.9-2.1Z"/>
      <path d="m24.9,29.1c1.1,1.1,3.1,1.1,4.2,0,.5-.6.9-1.3.9-2.1s-.3-1.6-.9-2.1c-1.1-1.1-3.1-1.1-4.2,0-.5.6-.9,1.3-.9,2.1s.3,1.6.9,2.1h0Z"/>
      <path d="m5.9,2.4c0-.2,0-.4-.2-.5,0-.2-.2-.4-.3-.5-.1-.2-.2-.3-.4-.5-.1-.1-.3-.2-.5-.4-.1,0-.3-.2-.5-.3-.2,0-.4-.1-.5-.2C3.2,0,2.8,0,2.4,0c-.2,0-.4,0-.6.2-.2,0-.4.2-.5.3-.1.1-.3.2-.4.4-.1.1-.3.3-.4.5,0,.1-.2.3-.3.5,0,.2-.1.4-.2.5,0,.2,0,.4,0,.6s0,.4,0,.6c0,.2,0,.4.2.5,0,.2.2.4.3.5.1.2.2.3.4.5s.3.2.5.4c.1,0,.3.2.5.3.2,0,.4.1.6.2.4,0,.7,0,1.2,0,.2,0,.4,0,.5-.2.2,0,.4-.2.5-.3.1-.1.3-.2.5-.4.1-.1.2-.3.3-.4.1-.2.2-.4.3-.5,0-.2.1-.4.2-.6,0-.2,0-.4,0-.6s0-.4,0-.6h0Z"/>
      <path d="m24.5,4.7c.1.2.2.3.4.5.1.1.3.2.5.4.1,0,.3.2.5.3.2,0,.4.1.6.2.2,0,.4,0,.6,0,.8,0,1.6-.3,2.1-.9.1-.1.3-.3.4-.5,0-.1.2-.3.3-.5,0-.2.1-.4.2-.6,0-.2,0-.4,0-.6,0-.8-.3-1.6-.9-2.1-.1-.1-.3-.3-.5-.4-.1,0-.3-.2-.5-.3-.2,0-.4-.1-.5-.2-1-.2-2,.1-2.7.8-.6.6-.9,1.3-.9,2.1s0,.4,0,.6c0,.2,0,.4.2.5,0,.2.2.4.3.5h0Z"/>
      <path d="m5.8,49.9c0-.2-.2-.4-.3-.5-.1-.2-.2-.3-.4-.5-.1,0-.3-.2-.5-.4-.1,0-.3-.2-.5-.3-.2,0-.4-.1-.5-.2-.2,0-.4,0-.6,0s-.4,0-.6,0c-.2,0-.4,0-.6.2-.2,0-.4.2-.5.3-.1,0-.3.2-.4.4-.1.1-.3.3-.4.5,0,.2-.2.3-.3.5,0,.2-.1.4-.2.6,0,.2,0,.4,0,.6s0,.4,0,.6c0,.2,0,.4.2.6s.2.4.3.5c.1.2.2.3.4.5.1.1.3.2.5.4.1,0,.3.2.5.3.2,0,.4.1.6.2.4,0,.7,0,1.2,0,.2,0,.4,0,.5-.2.2,0,.4-.2.5-.3.1,0,.3-.2.5-.4.5-.5.9-1.3.9-2.1s0-.4,0-.6c0-.2,0-.4-.2-.6Z"/>
      <path d="m24.9,53.1c.6.6,1.3.9,2.1.9s.4,0,.6,0c.2,0,.4,0,.5-.2s.4-.2.5-.3c.2,0,.3-.2.5-.4.5-.5.9-1.3.9-2.1s-.3-1.6-.9-2.1c-.1-.1-.3-.3-.5-.4-.1,0-.3-.2-.5-.3-.2,0-.4-.1-.5-.2-1-.2-2,.1-2.7.8-.6.6-.9,1.3-.9,2.1s.3,1.6.9,2.1h0Z"/>
    </g>
  </g>
</svg>