<?xml version="1.0" encoding="UTF-8"?>
<svg id="Calque_2" data-name="Calque 2" xmlns="http://www.w3.org/2000/svg" viewBox="0 0 348.8 377">
  <defs>
    <style>
      .cls-1 {
        fill: none;
        stroke: #fff;
        stroke-linecap: round;
        stroke-linejoin: round;
        stroke-width: 60px;
      }
    </style>
  </defs>
  <g id="Calque_1-2" data-name="Calque 1">
    <path class="cls-1" d="m316.5,325.3c-5.4,12.7-17.9,21.7-32.6,21.7H64.9c-14.6,0-27.2-9-32.6-21.7-2.8-6.4-2.8-13.7-1.4-20.5l1.1-5.4c9.4-46.5,46.7-81.4,92.4-88.5-23.2-17.8-38.5-47.8-38.5-81.6,0-54.9,39.9-99.3,89.2-99.3s89.1,44.5,89.1,99.3-15.4,64-38.7,81.7c45.1,7.6,81.9,42.3,91.2,88.4l1.1,5.4c1.3,6.8,1.3,14.1-1.4,20.5Z"/>
  </g>
</svg>