<?xml version="1.0" encoding="UTF-8"?>
<svg id="Calque_9" data-name="Calque 9" xmlns="http://www.w3.org/2000/svg" width="21.0906" height="752.9831" viewBox="0 0 21.0906 752.9831">
  <defs>
    <style>
      .cls-1 {
        fill: #fff;
      }
    </style>
  </defs>
  <g>
    <polygon class="cls-1" points="9.9754 532.5206 15.9893 537.6115 2.1733 537.6115 2.1733 539.5394 15.9895 539.5394 9.9754 544.6284 11.2208 546.1007 19.244 539.3116 19.244 537.8393 11.2217 531.0483 9.9754 532.5206"/>
    <polygon class="cls-1" points="9.9754 505.2784 15.9893 510.3693 2.1733 510.3693 2.1733 512.2972 15.9895 512.2972 9.9754 517.3862 11.2208 518.8585 19.244 512.0694 19.244 510.5971 11.2217 503.8061 9.9754 505.2784"/>
    <polygon class="cls-1" points="9.9754 478.0362 15.9893 483.1271 2.1733 483.1271 2.1733 485.055 15.9895 485.055 9.9754 490.1441 11.2208 491.6163 19.244 484.8272 19.244 483.3549 11.2217 476.5639 9.9754 478.0362"/>
  </g>
  <g>
    <rect class="cls-1" x="4.6744" y="148.3978" width="12.3539" height="17.0707" transform="translate(-146.0819 167.7845) rotate(-90)"/>
    <rect class="cls-1" x="6.0899" y="134.8342" width="9.5228" height="17.0707" transform="translate(-132.5183 154.2209) rotate(-90)"/>
    <rect class="cls-1" x="7.0679" y="123.6642" width="7.5668" height="17.0707" transform="translate(-121.3482 143.0509) rotate(-90)"/>
    <rect class="cls-1" x="8.2519" y="114.6561" width="5.199" height="17.0707" transform="translate(-112.3402 134.0428) rotate(-90)"/>
    <rect class="cls-1" x="9.2299" y="107.81" width="3.2429" height="17.0707" transform="translate(-105.494 127.1967) rotate(-90)"/>
    <rect class="cls-1" x="9.8476" y="102.5596" width="2.0075" height="17.0707" transform="translate(-100.2436 121.9463) rotate(-90)"/>
    <rect class="cls-1" x="10.3495" y="98.4287" width="1.0038" height="17.0707" transform="translate(-96.1127 117.8154) rotate(-90)"/>
    <rect class="cls-1" x="10.6004" y="95.0507" width=".5019" height="17.0707" transform="translate(-92.7347 114.4374) rotate(-90)"/>
    <g>
      <path class="cls-1" d="m2.316,96.9403v-7.666c0-2.3692.7716-4.2532,2.3174-5.655,1.5432-1.3989,3.6206-2.0984,6.2296-2.0984,2.6013,0,4.6722.7164,6.2128,2.1492,1.5406,1.4356,2.3109,3.3704,2.3109,5.8073v7.4629H2.316Zm15.0965-2.5243v-4.6199c0-1.8107-.569-3.2097-1.7071-4.1968-1.138-.9843-2.7522-1.4779-4.8425-1.4779-2.098,0-3.7174.4738-4.8593,1.4215-1.1419.9477-1.7135,2.293-1.7135,4.0361v4.8371h13.1224Z"/>
      <path class="cls-1" d="m2.316,78.5849v-2.812l14.5946-5.3447v-.0141l-14.5946-5.3306v-2.7951l17.0707,6.7888v2.7161l-17.0707,6.7916Z"/>
      <path class="cls-1" d="m2.316,58.2382v-2.5243h17.0707v2.5243H2.316Z"/>
      <path class="cls-1" d="m2.316,41.8091v-2.5243h7.0025v-9.7362H2.316v-2.5271h17.0707v2.5271h-8.0244v9.7362h8.0244v2.5243H2.316Z"/>
      <path class="cls-1" d="m2.316,21.7641v-7.666c0-2.3692.7716-4.2532,2.3174-5.655,1.5432-1.3989,3.6206-2.0984,6.2296-2.0984,2.6013,0,4.6722.7164,6.2128,2.1492,1.5406,1.4356,2.3109,3.3704,2.3109,5.8073v7.4629H2.316Zm15.0965-2.5243v-4.6199c0-1.8107-.569-3.2097-1.7071-4.1968-1.138-.9843-2.7522-1.4779-4.8425-1.4779-2.098,0-3.7174.4738-4.8593,1.4215-1.1419.9477-1.7135,2.293-1.7135,4.0361v4.8371h13.1224Z"/>
    </g>
  </g>
  <rect class="cls-1" x="9.8186" y="593.3283" width="1.7801" height="16.0213"/>
  <g>
    <g>
      <path class="cls-1" d="m13.0572,274.9437h-.0372c-.5286,0-1.2962-.3115-2.2093-1.5562-.5921-.7913-.8213-1.1027-1.3953-1.1027-.447,0-.8703.2668-.8703.9264,0,.6676.3846.9527.9828,1.0306v.6538c-.7887-.0538-1.4944-.5348-1.4944-1.7096,0-1.0867.6323-1.6031,1.3674-1.6031.7247,0,1.0881.3893,1.7871,1.3489.4909.6653.9555,1.0523,1.3364,1.192v-2.707l.5327.095v3.4319Z"/>
      <path class="cls-1" d="m10.4665,266.9898c1.3375,0,2.6646.3321,2.6646,1.7669,0,1.4863-1.3782,1.7806-2.6532,1.7806-1.2812,0-2.4442-.4718-2.4442-1.7886,0-1.3672,1.1258-1.7589,2.4328-1.7589Zm.0005,2.8467c1.2058,0,2.1582-.2359,2.1582-1.0844,0-.884-.956-1.0661-2.1463-1.0661-1.0474,0-1.9435.237-1.9435,1.0604,0,.8749.9008,1.0901,1.9316,1.0901Z"/>
    </g>
    <g>
      <path class="cls-1" d="m13.0572,256.2546h-.0372c-.5286,0-1.2962-.3115-2.2093-1.5562-.5921-.7913-.8213-1.1027-1.3953-1.1027-.447,0-.8703.2668-.8703.9264,0,.6676.3846.9527.9828,1.0306v.6538c-.7887-.0538-1.4944-.5348-1.4944-1.7096,0-1.0867.6323-1.6031,1.3674-1.6031.7247,0,1.0881.3893,1.7871,1.3489.4909.6653.9555,1.0523,1.3364,1.192v-2.707l.5327.095v3.4319Z"/>
      <path class="cls-1" d="m13.0572,250.9448h-4.2292c.1099.1958.2529.7271.2906.9516h-.4857c-.0841-.4157-.3025-.8714-.5492-1.1451v-.4832h4.9735v.6768Z"/>
    </g>
    <path class="cls-1" d="m20.9381,270.466c0,5.7305-4.6621,10.3926-10.3935,10.3926S.1524,276.1965.1524,270.466s4.6617-10.3926,10.3922-10.3926,10.3935,4.6621,10.3935,10.3926Zm-20.0898,0c0,5.3472,4.3495,9.6967,9.6963,9.6967s9.6976-4.3495,9.6976-9.6967-4.3504-9.6967-9.6976-9.6967-9.6963,4.3495-9.6963,9.6967Z"/>
    <path class="cls-1" d="m20.9381,253.2446c0,5.7305-4.6621,10.3926-10.3935,10.3926S.1524,258.9751.1524,253.2446s4.6617-10.3926,10.3922-10.3926,10.3935,4.6621,10.3935,10.3926Zm-20.0898,0c0,5.3472,4.3495,9.6967,9.6963,9.6967s9.6976-4.3495,9.6976-9.6967-4.3504-9.6967-9.6976-9.6967-9.6963,4.3495-9.6963,9.6967Z"/>
  </g>
  <g>
    <path class="cls-1" d="m10.8569,743.8566c-1.9765,0-3.5673-.2034-4.7722-.6101-1.2049-.4067-2.1343-1.0111-2.7881-1.8131-.6538-.802-.9807-1.8112-.9807-3.0275,0-.897.1805-1.6839.5416-2.3604.3611-.6766.8818-1.2353,1.5622-1.6763s1.509-.7868,2.4859-1.0377,2.2939-.3763,3.9512-.3763c1.9613,0,3.5445.2015,4.7494.6044,1.2049.4029,2.1362,1.0054,2.7938,1.8074.6576.802.9864,1.815.9864,3.0389,0,1.6116-.5778,2.8774-1.7333,3.7972-1.3912,1.1023-3.6566,1.6535-6.7963,1.6535Zm0-2.1096c2.7444,0,4.5708-.3212,5.4792-.9636.9084-.6424,1.3627-1.4349,1.3627-2.3776s-.4561-1.7352-1.3684-2.3776c-.9122-.6424-2.7367-.9636-5.4735-.9636-2.752,0-4.5803.3212-5.4849.9636s-1.357,1.4425-1.357,2.4004c0,.9427.3991,1.6953,1.1973,2.2578,1.0187.707,2.9002,1.0605,5.6445,1.0605Z"/>
    <path class="cls-1" d="m19.1014,721.9693v2.0526H6.022c.4713.4941.9427,1.1422,1.414,1.9442.4713.802.8248,1.5223,1.0605,2.1609h-1.9841c-.5397-1.1479-1.1935-2.1514-1.9613-3.0104-.7678-.859-1.5128-1.4672-2.235-1.8245v-1.3228h16.7854Z"/>
    <path class="cls-1" d="m9.3289,714.4048h-2.3376v-2.3376h2.3376v2.3376Zm9.7725,0h-2.3376v-2.3376h2.3376v2.3376Z"/>
    <path class="cls-1" d="m10.8569,707.8888c-1.9765,0-3.5673-.2034-4.7722-.6101-1.2049-.4067-2.1343-1.0111-2.7881-1.8131s-.9807-1.8112-.9807-3.0275c0-.897.1805-1.6839.5416-2.3604.3611-.6766.8818-1.2353,1.5622-1.6763s1.509-.7868,2.4859-1.0377,2.2939-.3763,3.9512-.3763c1.9613,0,3.5445.2015,4.7494.6044s2.1362,1.0054,2.7938,1.8074c.6576.802.9864,1.815.9864,3.0389,0,1.6116-.5778,2.8774-1.7333,3.7972-1.3912,1.1023-3.6566,1.6535-6.7963,1.6535Zm0-2.1096c2.7444,0,4.5708-.3212,5.4792-.9636.9084-.6424,1.3627-1.4349,1.3627-2.3776s-.4561-1.7352-1.3684-2.3776c-.9122-.6424-2.7367-.9636-5.4735-.9636-2.752,0-4.5803.3212-5.4849.9636s-1.357,1.4425-1.357,2.4004c0,.9427.3991,1.6953,1.1973,2.2578,1.0187.707,2.9002,1.0605,5.6445,1.0605Z"/>
    <path class="cls-1" d="m17.1286,682.9455h1.9727v11.0496c-.4941.0152-.9693-.0646-1.4254-.2395-.7526-.2813-1.4938-.7317-2.2236-1.3513s-1.5736-1.5147-2.5315-2.6854c-1.49-1.8169-2.6702-3.0446-3.5407-3.6832s-1.6934-.9579-2.4688-.9579c-.8134,0-1.4995.2908-2.0583.8723-.5588.5816-.8381,1.3399-.8381,2.2749,0,.9883.2965,1.7789.8894,2.3718.593.593,1.414.8932,2.4631.9008l-.2167,2.1096c-1.5736-.1444-2.7729-.688-3.5977-1.6306-.8248-.9427-1.2372-2.2084-1.2372-3.7972,0-1.604.4447-2.8736,1.3342-3.8086.8894-.9351,1.9917-1.4026,3.3069-1.4026.669,0,1.3266.1368,1.9727.4105s1.3266.7279,2.0412,1.3627,1.6953,1.6896,2.942,3.1644c1.0339,1.2315,1.7352,2.0222,2.1039,2.3718s.7393.6386,1.1118.8666v-8.1988Z"/>
    <path class="cls-1" d="m9.3289,678.4369h-2.3376v-2.3376h2.3376v2.3376Zm9.7725,0h-2.3376v-2.3376h2.3376v2.3376Z"/>
    <path class="cls-1" d="m19.1014,665.3414h-4.0025v7.2524h-1.8815l-10.833-7.6287v-1.6763h10.833v-2.2578h1.8815v2.2578h4.0025v2.0526Zm-5.884,0h-7.5375l7.5375,5.234v-5.234Z"/>
    <path class="cls-1" d="m14.7226,657.7655l-.1824-2.1552c1.0491-.1596,1.8378-.5302,2.3661-1.1118.5283-.5816.7925-1.2829.7925-2.1039,0-.9883-.3725-1.8245-1.1175-2.5087-.745-.6842-1.7333-1.0263-2.9648-1.0263-1.1707,0-2.0944.3288-2.771.9864-.6766.6576-1.0149,1.5185-1.0149,2.5828,0,.6614.1501,1.2581.4504,1.7903.3003.5321.6899.9503,1.1688,1.2543l-.2509,1.9271-8.5865-1.6192v-8.3129h1.9613v6.6708l4.4928.9008c-.6994-1.0035-1.0491-2.0564-1.0491-3.1587,0-1.4596.5055-2.6911,1.5166-3.6946s2.311-1.5052,3.8999-1.5052c1.5128,0,2.8204.4409,3.9227,1.3228,1.3532,1.0719,2.0298,2.5353,2.0298,4.3902,0,1.5204-.4257,2.7615-1.2771,3.7231-.8514.9617-1.9803,1.5109-3.3867,1.6478Z"/>
  </g>
</svg>